<svg width="245" height="245" viewBox="0 0 245 245" fill="none" xmlns="http://www.w3.org/2000/svg">
    <path fill-rule="evenodd" clip-rule="evenodd" d="M40.0189 205.77C38.5157 204.123 36.5784 202.832 34.307 202.095C27.3008 199.821 19.7684 203.673 17.4831 210.7C15.1977 217.726 19.0247 225.266 26.0309 227.54C31.9594 229.464 38.2645 227.002 41.4487 221.942C44.2719 224.507 48.7476 227.808 54.876 231.846C47.5191 242.523 33.7978 247.595 20.8724 243.4C5.10841 238.283 -3.50236 221.319 1.63975 205.509C6.78186 189.7 23.7296 181.031 39.4937 186.148C44.7554 187.856 49.2203 190.884 52.6427 194.748C63.6364 205.487 77.2031 213.92 92.8039 218.983C147.102 236.608 205.478 206.751 223.19 152.296C240.901 97.8403 211.242 39.408 156.944 21.7835C102.645 4.15895 44.2697 34.0162 26.558 88.4714C16.7402 118.657 21.4776 150.064 36.8986 175.065C29.5922 173.548 23.4184 173.944 18.3773 176.254C3.98135 148.604 0.277282 115.371 10.7006 83.3243C31.269 20.0859 99.0601 -14.5869 162.116 5.88027C225.172 26.3475 259.615 94.2043 239.047 157.443C218.479 220.681 150.687 255.354 87.6313 234.887C77.45 231.582 68.0147 227.042 59.4365 221.485C51.8486 216.47 45.3761 211.231 40.0189 205.77Z" fill="url(#paint0_linear)"/>
    <defs>
        <linearGradient id="paint0_linear" x1="-78.9367" y1="79.0951" x2="79.2592" y2="323.952" gradientUnits="userSpaceOnUse">
            <stop stop-color="#FF3B3B"/>
            <stop offset="1" stop-color="#5551FF"/>
        </linearGradient>
    </defs>
</svg>
